<?xml version="1.0" encoding="UTF-8" standalone="no"?>
<svg
   xmlns:dc="http://purl.org/dc/elements/1.1/"
   xmlns:cc="http://creativecommons.org/ns#"
   xmlns:rdf="http://www.w3.org/1999/02/22-rdf-syntax-ns#"
   xmlns:svg="http://www.w3.org/2000/svg"
   xmlns="http://www.w3.org/2000/svg"
   xmlns:sodipodi="http://sodipodi.sourceforge.net/DTD/sodipodi-0.dtd"
   xmlns:inkscape="http://www.inkscape.org/namespaces/inkscape"
   viewBox="0 0 348 348"
   fill="none"
   version="1.1"
   id="svg246"
   sodipodi:docname="Shifting Maze.svg"
   inkscape:version="0.92.4 (5da689c313, 2019-01-14)">
  <metadata
     id="metadata250">
    <rdf:RDF>
      <cc:Work
         rdf:about="">
        <dc:format>image/svg+xml</dc:format>
        <dc:type
           rdf:resource="http://purl.org/dc/dcmitype/StillImage" />
        <dc:title />
      </cc:Work>
    </rdf:RDF>
  </metadata>
  <sodipodi:namedview
     pagecolor="#ffffff"
     bordercolor="#666666"
     borderopacity="1"
     objecttolerance="10"
     gridtolerance="10"
     guidetolerance="10"
     inkscape:pageopacity="0"
     inkscape:pageshadow="2"
     inkscape:window-width="1366"
     inkscape:window-height="706"
     id="namedview248"
     showgrid="false"
     inkscape:zoom="1.36"
     inkscape:cx="182.52331"
     inkscape:cy="178.09917"
     inkscape:window-x="-8"
     inkscape:window-y="-8"
     inkscape:window-maximized="1"
     inkscape:current-layer="svg246" />
  <defs
     id="defs224">
    <filter
       id="a"
       color-interpolation-filters="sRGB">
      <feColorMatrix
         values="0.21 0.72 0.072 0 0 0.21 0.72 0.072 0 0 0.21 0.72 0.072 0 0 0 0 0 1 0"
         id="feColorMatrix218" />
    </filter>
    <filter
       id="b"
       color-interpolation-filters="sRGB">
      <feColorMatrix
         values="0.21 0.72 0.072 0 0 0.21 0.72 0.072 0 0 0.21 0.72 0.072 0 0 0 0 0 1 0"
         id="feColorMatrix221" />
    </filter>
  </defs>
  <path
     d="M5.079 5.776h336.913v337.67H5.08z"
     stroke-width="2"
     stroke="#000"
     id="path226" />
  <path
     d="M282.734 40.554c0-8.376 6.966-15.165 15.56-15.165 4.126 0 8.084 1.597 11.001 4.441 2.918 2.844 4.558 6.702 4.558 10.724 0 8.376-6.966 15.165-15.56 15.165-8.593 0-15.559-6.79-15.559-15.165z"
     stroke-width="2"
     stroke="#000"
     id="path228" />
  <g
     aria-label="PUSH IT!"
     style="font-style:normal;font-variant:normal;font-weight:normal;font-stretch:normal;font-size:58.41326904px;line-height:1.25;font-family:'Special Elite';-inkscape-font-specification:'Special Elite';letter-spacing:0px;word-spacing:0px;fill:#000000;fill-opacity:1;stroke:none;stroke-width:1.75239825"
     id="text111" />
  <path
     style="fill:#ffffff;fill-opacity:1;stroke:#000000;stroke-width:1.06500006;stroke-miterlimit:4;stroke-dasharray:none;stroke-opacity:1"
     d="M 15.441175,16.382353 H 122.05883 V 61.235292 H 15.441175 Z"
     id="rect1012" />
  <g
     aria-label="SET"
     style="font-style:normal;font-variant:normal;font-weight:normal;font-stretch:normal;font-size:47.72970581px;line-height:1.25;font-family:'Great Answer';-inkscape-font-specification:'Great Answer';letter-spacing:0px;word-spacing:0px;fill:#000000;fill-opacity:1;stroke:none;stroke-width:2.23732996"
     id="text36">
    <path
       d="m 41.709545,43.878114 0.906865,0.190919 q 0.09546,0.525026 0.238648,1.050053 0.143189,0.477297 0.143189,1.002324 0,1.718269 -0.763675,3.24562 -0.763675,1.479621 -2.004648,2.625134 -1.240972,1.145513 -2.816052,1.765999 -1.57508,0.620486 -3.19789,0.525027 h -0.334108 q -0.525027,0.429567 -1.240973,0.429567 -0.429567,0 -0.859134,-0.09546 -0.429568,-0.09546 -0.906865,-0.09546 -0.238648,0 -0.477297,0.04773 -0.190919,0.04773 -0.429567,0.04773 -1.527351,0 -2.195567,-0.906865 -0.668216,-0.954594 -1.050053,-2.195566 -0.09546,-0.381838 -0.429568,-0.525027 -0.334108,-0.190919 -0.334108,-0.525027 0,-0.668216 0.334108,-1.479621 0.334108,-0.859134 0.859135,-1.193242 1.002324,-0.668216 2.004648,-1.240973 1.050053,-0.572756 2.147836,-1.097783 0.238649,-0.143189 0.525027,-0.143189 0.334108,0 0.620486,-0.09546 0.954595,-0.238649 1.766,-1.002324 0.811405,-0.811405 0.811405,-1.861459 0,-0.334108 -0.286379,-1.097783 -0.238648,-0.763675 -0.620486,-1.57508 -0.381838,-0.859135 -0.763675,-1.527351 -0.381838,-0.715945 -0.668216,-0.859135 -1.002324,-0.525026 -1.57508,-1.145512 -0.525027,-0.620487 -1.145513,-1.575081 -0.286379,-0.381837 -0.525027,-0.477297 -0.811405,-0.286378 -1.67054,-1.002324 -0.811405,-0.715945 -1.52735,-1.62281 -0.668216,-0.954594 -1.145513,-1.956918 -0.429568,-1.002323 -0.429568,-1.861458 0,-0.811405 0.572757,-1.67054 0.572756,-0.859134 1.431891,-1.57508 0.859135,-0.715946 1.813729,-1.193243 0.954594,-0.477297 1.67054,-0.525026 0.09546,0.04773 0.334107,0.04773 0.334108,0 0.477298,-0.286378 0.190918,-0.286378 0.286378,-0.525027 l 0.381837,0.572757 q 0.09546,-0.04773 0.286379,-0.190919 0.238648,-0.143189 0.477297,-0.334108 0.286378,-0.190919 0.477297,-0.334108 0.238648,-0.190919 0.381837,-0.286378 h 0.334108 q 1.050054,0.525027 2.147837,0.763675 1.145513,0.190919 2.052377,0.906864 0.906865,0.715946 1.67054,1.575081 0.811405,0.811405 1.57508,1.62281 -0.190918,0.09546 -0.381837,0.190919 -0.190919,0.09546 -0.429568,0.09546 -1.193242,0 -2.291025,-0.334108 -1.097784,-0.381838 -2.195567,-0.381838 -0.572756,0 -1.384161,0.334108 -0.763676,0.286379 -1.575081,0.763676 -0.763675,0.477297 -1.431891,1.002323 -0.668216,0.477298 -1.097783,0.906865 0.04773,0.09546 0,0.238648 0,0.14319 0,0.238649 0,0.334108 0.09546,0.477297 0.572757,0.477297 1.002324,1.097783 0.477297,0.572757 1.097783,0.954594 0.14319,0.09546 0.620487,0.572757 0.525026,0.429567 1.193242,1.050053 0.668216,0.620486 1.384162,1.336432 0.763675,0.668216 1.384161,1.288702 0.620486,0.620486 1.002324,1.050054 0.429567,0.381837 0.429567,0.429567 -0.09546,0.238649 -0.334108,0.143189 l 0.09546,0.620486 q 0.09546,0.09546 0.190919,0.09546 0.190918,0 0.334108,-0.09546 0.143189,-0.143189 0.381837,-0.143189 0.09546,0 0.190919,0.09546 0.09546,0.09546 0.143189,0.143189 -0.143189,0.09546 -0.334108,0.286378 -0.143189,0.143189 -0.143189,0.334108 0,0.238648 0.334108,0.572756 0.381838,0.334108 0.525027,0.429568 l 0.620486,-0.715946 0.811405,1.71827 -0.238649,0.143189 -0.668215,-1.002324 q -0.381838,0.04773 -0.429568,0.286378 -0.04773,0.190919 -0.04773,0.525027 0,0.190919 -0.04773,0.334108 L 39.37079,40.537034 v 0.334108 q 0,0.668216 0.143189,0.811405 0.143189,0.09546 0.668216,0.09546 0.334108,0 0.429567,0.238648 0.143189,0.190919 0.381838,0.238649 l 0.190919,0.381838 0.954594,-0.334108 q 0,0.238648 0,0.429567 0,0.190919 -0.09546,0.429567 -0.477297,0.238649 -0.334108,0.715946 h -0.477297 q -0.190919,0 -0.334108,0.04773 -0.143189,0 -0.143189,0.238648 0,0.477297 0.143189,1.002324 0.143189,0.525027 0.429568,0.906864 z m -1.813728,-0.04773 q 0.09546,0 0.09546,0.04773 0.04773,0 0.143189,0 0.334108,0 0.477297,-0.286378 0.190919,-0.286379 0.334108,-0.525027 -0.238648,-0.09546 -0.429567,-0.381838 -0.190919,-0.334108 -0.429568,-0.334108 -0.190918,0 -0.334108,0.143189 z M 29.5862,29.129635 q -0.143189,0 -0.286378,-0.04773 -0.09546,-0.04773 -0.238649,-0.143189 l 1.193243,-0.143189 q -0.143189,0.09546 -0.286378,0.238648 -0.143189,0.09546 -0.381838,0.09546 z m 10.786914,18.471396 -0.04773,0.190919 0.477297,0.143189 0.09546,-0.286378 z m -2.243297,-9.927779 -0.572756,-0.477297 -0.143189,0.286378 z"
       style="stroke-width:2.23732996"
       id="path128" />
    <path
       d="m 71.061823,24.356664 q -2.291026,0.763676 -4.677511,1.097783 -2.386485,0.286379 -4.772971,0.668216 -1.288702,0.238649 -2.338755,0.381838 -1.002324,0.09546 -1.956918,0.190919 -0.954594,0.09546 -2.004648,0.143189 -1.002324,0 -2.338755,0 -0.811405,0 -1.193243,0.477297 -0.381838,0.429567 -0.572756,1.097783 -0.14319,0.620486 -0.190919,1.336432 -0.04773,0.715946 -0.190919,1.288702 v 0.09546 q 0,0.286379 0.04773,1.097784 0.04773,0.763675 0.143189,1.57508 0.143189,0.811405 0.381837,1.431891 0.238649,0.620486 0.620487,0.620486 0.190918,0 0.238648,-0.04773 2.004648,-0.572757 3.961566,-0.954595 1.956918,-0.381837 4.104754,-0.381837 0.190919,0 0.429568,0.143189 0.04773,0.381838 0.238648,0.381838 0.238649,0 0.477297,0.09546 0.334108,0.04773 0.668216,0.334108 0.381838,0.286378 0.668216,0.477297 -2.577404,1.097783 -5.297997,1.813729 -2.720593,0.715945 -5.488916,1.050053 l -0.525027,1.527351 q 0.381837,1.240972 0.477297,2.481945 0.143189,1.193242 0.143189,2.434215 0,1.431891 -0.286378,2.863782 0.525027,0.238649 0.572756,0.381838 0.09546,0.09546 0.09546,0.190918 0.04773,0.04773 0.190918,0.04773 0.190919,0 0.906865,0 0.477297,0 0.381838,0.525027 0.190918,0.143189 0.429567,0.143189 0.763675,0 1.52735,-0.334108 0.811405,-0.381838 1.575081,-0.381838 0.334108,0 0.620486,0.09546 0.334108,0.04773 0.668216,0.04773 0.859135,0 1.384161,-0.477297 l 0.238649,-0.04773 q 0.238648,0.381837 0.668216,0.381837 0.334108,0 0.620486,-0.09546 0.334108,-0.143189 0.668216,-0.143189 v 0.668216 h 0.09546 q 0.238649,0 0.381838,-0.09546 0.190919,-0.09546 0.429567,-0.09546 0.190919,0 0.572757,0.381838 0.381837,0.334108 0.763675,0.811405 0.381838,0.477297 0.668216,1.002323 0.286378,0.477298 0.334108,0.763676 0.04773,0.190919 0.572756,0.429567 0.572757,0.190919 0.811405,0.286378 -0.238648,0.811405 -0.859134,1.050054 -0.572757,0.238648 -1.336432,0.334108 -1.336432,0.09546 -2.625134,0.286378 -1.288702,0.190919 -2.625134,0.286378 -1.67054,0.190919 -3.388809,0.190919 -1.67054,0 -3.341079,0 -0.715946,0 -1.431892,-0.09546 -0.668215,-0.09546 -1.336431,-0.381838 -0.859135,-0.381838 -1.479621,-1.145513 -0.572757,-0.811405 -1.097783,-1.52735 -0.715946,-0.906865 -1.145513,-2.386486 -0.429568,-1.479621 -0.668216,-3.102431 -0.238649,-1.62281 -0.334108,-3.19789 -0.04773,-1.57508 -0.04773,-2.720593 0,-2.291026 -0.190919,-4.534322 -0.143189,-2.291026 -0.143189,-4.582052 0,-1.193243 0.04773,-2.338756 0.09546,-1.145512 0.381838,-2.195566 0.286378,-1.050054 0.859134,-1.956918 0.620486,-0.954594 1.67054,-1.718269 0.477297,-0.381838 0.954594,-0.620487 0.525027,-0.286378 1.145513,-0.286378 0.190919,0 0.334108,0.04773 0.190919,0.04773 0.381838,0.04773 0.668215,0 1.336431,-0.334108 0.715946,-0.381838 1.527351,-0.381838 0.525027,0 0.954594,0.190919 0.429567,0.190919 0.811405,0.429567 0.429567,0.190919 0.859135,0.381838 0.429567,0.143189 0.954594,0.143189 2.147837,0 4.247944,-0.238649 2.147836,-0.238648 4.295673,-0.477297 0.477297,-0.04773 0.906865,-0.09546 0.429567,-0.09546 0.906864,-0.09546 0.715946,0 1.193243,0.238648 0.525026,0.238649 0.906864,0.668216 0.381838,0.381838 0.715946,0.906864 0.334108,0.477297 0.715945,1.002324 z m -20.523773,23.005718 -0.190919,0.525027 0.190919,0.04773 q 0.09546,-0.09546 0.09546,-0.238649 0.04773,-0.143189 0.09546,-0.238648 z m 0.668216,-8.543617 -0.238649,0.09546 0.238649,0.381838 z"
       style="stroke-width:2.23732996"
       id="path130" />
    <path
       d="m 73.299899,27.840933 q 0,-0.668216 -0.381837,-1.145513 -0.381838,-0.477297 -0.906865,-0.859135 0.525027,-1.240972 1.909188,-1.67054 1.002324,-0.286378 2.052378,-0.334108 1.050053,-0.09546 2.100107,-0.334107 1.67054,-0.429568 3.388809,-0.859135 1.718269,-0.429568 3.436539,-0.429568 0.334108,0 0.620486,-0.09546 0.334108,-0.143189 0.668216,-0.143189 0.525027,0 0.859135,0.381838 h 0.286378 q 0.811405,-0.525027 1.670539,-0.477297 0.906865,0.04773 1.861459,-0.09546 0.477297,-0.04773 0.859135,-0.238648 0.429567,-0.238649 0.954594,-0.238649 1.145513,0 2.291026,0.143189 1.193242,0.143189 2.386485,0.143189 0.811405,0 1.57508,-0.09546 0.763676,-0.143189 1.575079,-0.143189 0.66822,0 1.2887,0.09546 0.66822,0.04773 1.33644,0.04773 0.66821,0 1.2887,0 0.62048,-0.04773 1.2887,-0.04773 1.71827,0 3.0547,0.525027 1.38416,0.525027 1.90919,2.338756 -1.05005,0.525026 -2.38649,0.859134 -1.2887,0.286378 -2.67286,0.477297 -1.38416,0.143189 -2.76832,0.286379 -1.33643,0.143189 -2.52968,0.286378 -0.859132,0.09546 -1.765996,0.238648 -0.859135,0.09546 -1.765999,0.238649 -0.334108,0.04773 -0.668216,0.143189 -0.286379,0.09546 -0.286379,0.525027 0,0.668216 0.238649,1.479621 0.238648,0.811405 0.477297,1.62281 0.286378,0.763675 0.525027,1.431891 0.238648,0.620486 0.238648,0.906864 0,0.620486 -0.143189,1.240972 -0.09546,0.572757 -0.09546,1.193243 0,0.715946 0.429567,1.050054 0.429567,0.334108 1.097783,0.381837 -0.238648,0.381838 -0.763675,0.477297 -0.525027,0.09546 -0.906864,0.190919 0.334108,0.143189 0.477297,0.238649 0.190919,0.04773 0.238648,0.143189 0.09546,0.04773 0.09546,0.238648 0.04773,0.190919 0.143189,0.572757 l 1.62281,-0.190919 -1.62281,3.388809 0.620486,0.525027 0.572756,-0.859135 q 0.238649,-0.04773 0.334108,0.190919 0.143189,0.190919 0.190919,0.477297 0.04773,0.286378 0,0.572757 0,0.286378 0,0.429567 h 0.190919 q 0.477294,0 0.620484,0.238648 0.14319,0.238649 0.14319,0.620487 l -0.0477,0.477297 -0.620485,-0.238649 -0.143189,0.143189 v 0.09546 q 0,0.238648 -0.143189,0.525026 -0.09546,0.238649 -0.09546,0.477297 0,0.429568 0.429567,0.620487 l 0.286375,-0.859135 q 0.0955,0.477297 0.19092,0.906864 0.0955,0.429568 0.0955,0.906865 0,0.620486 -0.14319,1.002324 -0.14319,0.334108 -0.33411,0.620486 -0.190914,0.238648 -0.381833,0.429567 -0.190919,0.190919 -0.286378,0.477297 0.09546,0.381838 0.09546,0.620486 0,0.715946 -0.238648,1.384162 -0.238649,0.620486 -0.238649,1.431891 0,0.811405 -0.525027,1.240972 -0.525027,0.381838 -1.336432,0.381838 -0.238648,0 -0.525026,-0.04773 -0.286379,-0.04773 -0.525027,-0.04773 -0.286378,0 -0.572757,0.04773 -0.286378,0.04773 -0.525026,0.190919 l -0.238649,-0.143189 q -0.238648,-0.668216 -0.572756,-1.240972 -0.334108,-0.620487 -0.668216,-1.193243 -0.334108,-0.620486 -0.620486,-1.240972 -0.286379,-0.620487 -0.334108,-1.336432 -0.04773,-0.620486 -0.09546,-1.479621 -0.04773,-0.906864 -0.143189,-1.813729 -0.04773,-0.906864 -0.190919,-1.718269 -0.143189,-0.859135 -0.334108,-1.384162 -0.09546,-0.238648 -0.143189,-0.477297 -0.04773,-0.286378 -0.04773,-0.525027 0,-0.429567 0.04773,-0.811405 0.09546,-0.429567 0.190919,-0.811405 0.286378,-1.765999 0.381838,-3.484268 0.09546,-1.718269 0.190919,-3.484269 0.04773,-1.193242 0.381837,-2.291025 0.334108,-1.145513 0.334108,-2.338756 0,-0.381838 -0.04773,-0.763675 0,-0.429568 0,-0.811405 -0.286378,-0.190919 -0.572756,-0.190919 -2.004648,0 -4.057025,0.238648 -2.004648,0.238649 -4.009295,0.477297 -4.152485,0.429568 -8.304969,0.429568 -0.763675,0 -1.431891,-0.04773 -0.668216,-0.04773 -1.384162,-0.143189 z m 24.38988,20.953341 q 0.381838,0.286378 0.715946,0.286378 0.381837,0 0.477297,-0.429568 0.09546,-0.429567 0.09546,-0.715945 0,-0.334108 -0.143189,-0.954594 -0.09546,-0.620486 -0.477297,-0.763676 l -0.668216,0.477298 q 0.238648,0.143189 0.381838,0.381837 0.190918,0.190919 0.190918,0.477297 0,0.381838 -0.190918,0.715946 -0.190919,0.286378 -0.381838,0.525027 z m 0.572756,3.579728 v -0.859135 l -0.525026,0.04773 v 0.811405 z m 0.04773,-16.657668 0.143189,-0.715945 0.334108,0.09546 q 0,0.190919 -0.04773,0.381838 0,0.143189 0,0.334108 z m -18.519126,-10.261887 -0.286378,0.286379 0.04773,0.238648 q 0.143189,0.09546 0.477297,0.09546 z"
       style="stroke-width:2.23732996"
       id="path132" />
  </g>
  <g
     aria-label="Seed: CHONKERS"
     style="font-style:normal;font-variant:normal;font-weight:normal;font-stretch:normal;font-size:23.63887215px;line-height:1.25;font-family:'Great Answer';-inkscape-font-specification:'Great Answer';letter-spacing:0px;word-spacing:0px;fill:#000000;fill-opacity:1;stroke:none;stroke-width:1.10807216"
     id="text36-0">
    <path
       d="m 89.702677,324.03458 0.449138,0.0946 q 0.04728,0.26002 0.118195,0.52005 0.07092,0.23639 0.07092,0.49642 0,0.851 -0.378222,1.60744 -0.378222,0.73281 -0.992832,1.30014 -0.614611,0.56733 -1.394694,0.87464 -0.780083,0.3073 -1.583804,0.26002 h -0.165472 q -0.260028,0.21275 -0.614611,0.21275 -0.21275,0 -0.4255,-0.0473 -0.21275,-0.0473 -0.449138,-0.0473 -0.118195,0 -0.236389,0.0236 -0.09456,0.0236 -0.21275,0.0236 -0.756444,0 -1.087388,-0.44914 -0.330944,-0.47278 -0.520055,-1.08739 -0.04728,-0.18911 -0.21275,-0.26003 -0.165472,-0.0945 -0.165472,-0.26003 0,-0.33094 0.165472,-0.7328 0.165472,-0.4255 0.4255,-0.59097 0.496416,-0.33095 0.992832,-0.61461 0.520055,-0.28367 1.06375,-0.5437 0.118194,-0.0709 0.260027,-0.0709 0.165472,0 0.307305,-0.0473 0.472778,-0.1182 0.874639,-0.49642 0.401861,-0.40186 0.401861,-0.92191 0,-0.16548 -0.141834,-0.5437 -0.118194,-0.37822 -0.307305,-0.78008 -0.189111,-0.4255 -0.378222,-0.75644 -0.189111,-0.35459 -0.330944,-0.4255 -0.496416,-0.26003 -0.780083,-0.56734 -0.260028,-0.3073 -0.567333,-0.78008 -0.141833,-0.18911 -0.260027,-0.23639 -0.401861,-0.14183 -0.827361,-0.49641 -0.401861,-0.35459 -0.756444,-0.80373 -0.330944,-0.47277 -0.567333,-0.96919 -0.21275,-0.49642 -0.21275,-0.92192 0,-0.40186 0.283667,-0.82736 0.283666,-0.4255 0.709166,-0.78008 0.4255,-0.35458 0.898277,-0.59097 0.472778,-0.23639 0.827361,-0.26003 0.04728,0.0236 0.165472,0.0236 0.165472,0 0.236388,-0.14183 0.09456,-0.14184 0.141834,-0.26003 l 0.189111,0.28367 q 0.04728,-0.0236 0.141833,-0.0946 0.118194,-0.0709 0.236389,-0.16547 0.141833,-0.0946 0.236388,-0.16547 0.118195,-0.0946 0.189111,-0.14184 h 0.165472 q 0.520056,0.26003 1.06375,0.37822 0.567333,0.0946 1.016471,0.44914 0.449139,0.35459 0.827361,0.78009 0.401861,0.40186 0.780082,0.80372 -0.09455,0.0473 -0.189111,0.0945 -0.09455,0.0473 -0.212749,0.0473 -0.590972,0 -1.134666,-0.16547 -0.543694,-0.18911 -1.087388,-0.18911 -0.283667,0 -0.685528,0.16547 -0.378222,0.14183 -0.780082,0.37822 -0.378222,0.23639 -0.709167,0.49642 -0.330944,0.23639 -0.543694,0.44914 0.02364,0.0473 0,0.11819 0,0.0709 0,0.1182 0,0.16547 0.04728,0.23638 0.283667,0.23639 0.496416,0.5437 0.236389,0.28366 0.543694,0.47278 0.07092,0.0473 0.307306,0.28366 0.260027,0.21275 0.590972,0.52006 0.330944,0.3073 0.685527,0.66189 0.378222,0.33094 0.685527,0.63825 0.307306,0.3073 0.496417,0.52005 0.212749,0.18911 0.212749,0.21275 -0.04728,0.11819 -0.165472,0.0709 l 0.04728,0.3073 q 0.04728,0.0473 0.09456,0.0473 0.09455,0 0.165472,-0.0473 0.07092,-0.0709 0.189111,-0.0709 0.04728,0 0.09456,0.0473 0.04728,0.0473 0.07092,0.0709 -0.07092,0.0473 -0.165472,0.14183 -0.07092,0.0709 -0.07092,0.16548 0,0.11819 0.165472,0.28366 0.189111,0.16547 0.260028,0.21275 l 0.307305,-0.35458 0.401861,0.851 -0.118195,0.0709 -0.330944,-0.49641 q -0.189111,0.0236 -0.21275,0.14183 -0.02364,0.0946 -0.02364,0.26003 0,0.0946 -0.02364,0.16547 l -0.236389,-0.37822 v 0.16547 q 0,0.33095 0.07092,0.40186 0.07092,0.0473 0.330944,0.0473 0.165472,0 0.21275,0.11819 0.07092,0.0946 0.189111,0.1182 l 0.09455,0.18911 0.472778,-0.16547 q 0,0.11819 0,0.21275 0,0.0946 -0.04728,0.21275 -0.236389,0.11819 -0.165472,0.35458 h -0.236389 q -0.09456,0 -0.165472,0.0236 -0.07092,0 -0.07092,0.11819 0,0.23639 0.07092,0.49642 0.07092,0.26003 0.21275,0.44914 z m -0.898277,-0.0236 q 0.04728,0 0.04728,0.0236 0.02364,0 0.07092,0 0.165472,0 0.236389,-0.14183 0.09455,-0.14184 0.165472,-0.26003 -0.118195,-0.0473 -0.21275,-0.18911 -0.09456,-0.16547 -0.21275,-0.16547 -0.09455,0 -0.165472,0.0709 z m -5.105997,-7.28077 q -0.07092,0 -0.141833,-0.0236 -0.04728,-0.0236 -0.118194,-0.0709 l 0.590971,-0.0709 q -0.07092,0.0473 -0.141833,0.11819 -0.07092,0.0473 -0.189111,0.0473 z m 5.342385,9.14824 -0.02364,0.0946 0.236389,0.0709 0.04728,-0.14183 z m -1.111027,-4.91688 -0.283666,-0.23639 -0.07092,0.14183 z"
       style="stroke-width:1.10807216"
       id="path101" />
    <path
       d="m 96.651767,323.08903 q -0.21275,0.11819 -0.401861,0.37822 -0.165472,0.26002 -0.378222,0.44914 -0.09456,0.0473 -0.21275,0.0473 -0.09456,0 -0.189111,0.0473 -0.09456,0.0709 -0.118194,0.18911 0,0.0946 -0.141834,0.14184 -0.330944,0.11819 -0.661888,0.23638 -0.307305,0.1182 -0.63825,0.21275 -0.165472,0.0473 -0.260027,0.0946 -0.07092,0.0473 -0.07092,0.23639 0,0.0473 -0.04728,0.11819 -0.04728,0.0473 -0.09455,0.0946 0.118194,0.0709 0.141833,0.16547 0.02364,0.0946 0.02364,0.21275 0.02364,0.0946 0.04728,0.21275 0.02364,0.0946 0.118194,0.18911 0.189111,0.16547 0.307306,0.35458 0.118194,0.18912 0.236388,0.37823 l 0.165472,-0.26003 0.330945,0.21275 q 0.09455,-0.21275 0.260027,-0.21275 0.07092,0 0.141833,0.0473 0.07092,0.0236 0.141834,0.0236 0.09455,0 0.165472,-0.0236 0.07092,-0.0236 0.141833,-0.0236 0.07092,0 0.165472,0.0473 l 0.09456,-0.0946 q 0.141833,-0.0473 0.307305,-0.0946 0.165472,-0.0709 0.330944,-0.0236 0.189111,-0.1182 0.378222,-0.1182 0.189111,0 0.283667,0.0709 0.09455,0.0709 0.189111,0.0709 0.118194,0 0.212749,-0.0236 0.09456,-0.0236 0.189111,-0.0473 0.401861,0.18911 0.590972,0.3073 0.21275,0.1182 0.472778,0.52006 v 0.16547 q 0,0.14183 0.07092,0.16547 0.09456,0.0236 0.165472,0.0236 0.09456,0 0.165472,0.0236 0.09456,0 0.09456,0.14183 0,0.0473 -0.02364,0.0709 0,0.0236 0,0.0709 -0.141833,0.4255 -0.520055,0.7328 -0.378222,0.28367 -0.874638,0.47278 -0.472778,0.18911 -0.992833,0.28367 -0.496416,0.0709 -0.898277,0.0709 -0.141833,0 -0.449139,-0.0236 -0.283666,0 -0.590972,-0.0236 -0.307305,-0.0473 -0.590971,-0.0945 -0.260028,-0.0709 -0.330945,-0.18911 -0.04728,-0.0236 -0.09456,-0.0236 -0.04728,-0.0236 -0.118194,-0.0236 -0.401861,0 -0.756444,-0.18911 -0.330945,-0.18911 -0.614611,-0.49642 -0.283666,-0.3073 -0.520055,-0.63825 -0.21275,-0.35458 -0.378222,-0.68552 -0.07092,-0.1182 -0.118195,-0.14184 -0.04728,-0.0473 -0.118194,-0.0946 -0.04728,-0.0473 -0.09455,-0.1182 -0.04728,-0.0945 -0.09456,-0.28366 -0.118194,-0.44914 -0.21275,-0.89828 -0.07092,-0.47278 -0.07092,-0.94556 0,-0.851 0.283666,-1.77291 0.283667,-0.92192 0.827361,-1.60744 0.141833,-0.18912 0.307305,-0.35459 0.165472,-0.16547 0.283666,-0.35458 0.189111,-0.28367 0.449139,-0.40186 0.543694,-0.30731 0.921916,-0.44914 0.378222,-0.14183 1.016472,-0.14183 0.472777,0 0.732805,0.11819 0.260027,0.0946 0.496416,0.52006 0.118194,0.26002 0.354583,0.33094 0.07092,0.0236 0.21275,0.21275 0.165472,0.16547 0.283666,0.26003 l 0.118195,0.52005 q -0.09456,-0.0473 -0.165472,-0.0709 -0.07092,-0.0236 -0.165473,-0.0236 -0.04728,0 -0.07092,0.0236 0,0 -0.04728,0 l 0.378222,0.56733 -0.09455,0.3073 h -0.04728 l -0.09456,-0.40186 q -0.189111,0.0236 -0.189111,0.26003 0,0.23639 -0.07092,0.37822 -0.07092,0.1182 -0.165472,0.21275 -0.09456,0.0946 -0.165472,0.18911 -0.07092,0.0709 -0.07092,0.18912 0,0.0709 0.04728,0.16547 0.07092,-0.0473 0.118194,-0.1182 0.07092,-0.0709 0.165472,-0.0709 0.02364,0 0.04728,0.0236 0.02364,0 0.04728,0 z m -0.827361,-2.22206 q -0.567333,0.0473 -0.945555,0.35458 -0.354583,0.28367 -0.590972,0.70917 -0.236388,0.4255 -0.378222,0.94556 -0.118194,0.49641 -0.212749,0.94555 0.40186,-0.0709 0.780082,-0.3073 0.401861,-0.26003 0.709167,-0.61462 0.307305,-0.37822 0.496416,-0.80372 0.189111,-0.4255 0.189111,-0.851 0,-0.14183 -0.04728,-0.37822 z"
       style="stroke-width:1.10807216"
       id="path103" />
    <path
       d="m 105.65485,323.08903 q -0.21275,0.11819 -0.40186,0.37822 -0.16547,0.26002 -0.37822,0.44914 -0.0946,0.0473 -0.21275,0.0473 -0.0946,0 -0.18911,0.0473 -0.0946,0.0709 -0.1182,0.18911 0,0.0946 -0.14183,0.14184 -0.33094,0.11819 -0.66189,0.23638 -0.3073,0.1182 -0.63825,0.21275 -0.16547,0.0473 -0.26002,0.0946 -0.0709,0.0473 -0.0709,0.23639 0,0.0473 -0.0473,0.11819 -0.0473,0.0473 -0.0945,0.0946 0.11819,0.0709 0.14183,0.16547 0.0236,0.0946 0.0236,0.21275 0.0236,0.0946 0.0473,0.21275 0.0236,0.0946 0.11819,0.18911 0.18911,0.16547 0.30731,0.35458 0.11819,0.18912 0.23638,0.37823 l 0.16548,-0.26003 0.33094,0.21275 q 0.0946,-0.21275 0.26003,-0.21275 0.0709,0 0.14183,0.0473 0.0709,0.0236 0.14183,0.0236 0.0946,0 0.16548,-0.0236 0.0709,-0.0236 0.14183,-0.0236 0.0709,0 0.16547,0.0473 l 0.0946,-0.0946 q 0.14183,-0.0473 0.3073,-0.0946 0.16548,-0.0709 0.33095,-0.0236 0.18911,-0.1182 0.37822,-0.1182 0.18911,0 0.28367,0.0709 0.0945,0.0709 0.18911,0.0709 0.11819,0 0.21275,-0.0236 0.0945,-0.0236 0.18911,-0.0473 0.40186,0.18911 0.59097,0.3073 0.21275,0.1182 0.47278,0.52006 v 0.16547 q 0,0.14183 0.0709,0.16547 0.0946,0.0236 0.16548,0.0236 0.0945,0 0.16547,0.0236 0.0946,0 0.0946,0.14183 0,0.0473 -0.0236,0.0709 0,0.0236 0,0.0709 -0.14183,0.4255 -0.52005,0.7328 -0.37822,0.28367 -0.87464,0.47278 -0.47278,0.18911 -0.99283,0.28367 -0.49642,0.0709 -0.89828,0.0709 -0.14183,0 -0.44914,-0.0236 -0.28366,0 -0.59097,-0.0236 -0.3073,-0.0473 -0.59097,-0.0945 -0.26003,-0.0709 -0.33095,-0.18911 -0.0473,-0.0236 -0.0945,-0.0236 -0.0473,-0.0236 -0.1182,-0.0236 -0.40186,0 -0.75644,-0.18911 -0.33094,-0.18911 -0.61461,-0.49642 -0.28367,-0.3073 -0.52006,-0.63825 -0.21274,-0.35458 -0.37822,-0.68552 -0.0709,-0.1182 -0.11819,-0.14184 -0.0473,-0.0473 -0.1182,-0.0946 -0.0473,-0.0473 -0.0945,-0.1182 -0.0473,-0.0945 -0.0946,-0.28366 -0.11819,-0.44914 -0.212747,-0.89828 -0.07092,-0.47278 -0.07092,-0.94556 0,-0.851 0.283663,-1.77291 0.28367,-0.92192 0.82736,-1.60744 0.14184,-0.18912 0.30731,-0.35459 0.16547,-0.16547 0.28367,-0.35458 0.18911,-0.28367 0.44913,-0.40186 0.5437,-0.30731 0.92192,-0.44914 0.37822,-0.14183 1.01647,-0.14183 0.47278,0 0.73281,0.11819 0.26002,0.0946 0.49641,0.52006 0.1182,0.26002 0.35459,0.33094 0.0709,0.0236 0.21275,0.21275 0.16547,0.16547 0.28366,0.26003 l 0.1182,0.52005 q -0.0946,-0.0473 -0.16548,-0.0709 -0.0709,-0.0236 -0.16547,-0.0236 -0.0473,0 -0.0709,0.0236 0,0 -0.0473,0 l 0.37822,0.56733 -0.0946,0.3073 h -0.0473 l -0.0946,-0.40186 q -0.18911,0.0236 -0.18911,0.26003 0,0.23639 -0.0709,0.37822 -0.0709,0.1182 -0.16547,0.21275 -0.0945,0.0946 -0.16547,0.18911 -0.0709,0.0709 -0.0709,0.18912 0,0.0709 0.0473,0.16547 0.0709,-0.0473 0.1182,-0.1182 0.0709,-0.0709 0.16547,-0.0709 0.0236,0 0.0473,0.0236 0.0236,0 0.0473,0 z m -0.82736,-2.22206 q -0.56733,0.0473 -0.94555,0.35458 -0.35459,0.28367 -0.59097,0.70917 -0.23639,0.4255 -0.37823,0.94556 -0.11819,0.49641 -0.21275,0.94555 0.40186,-0.0709 0.78009,-0.3073 0.40186,-0.26003 0.70916,-0.61462 0.30731,-0.37822 0.49642,-0.80372 0.18911,-0.4255 0.18911,-0.851 0,-0.14183 -0.0473,-0.37822 z"
       style="stroke-width:1.10807216"
       id="path105" />
    <path
       d="m 116.87999,318.97586 q 0.0709,0.23639 0.0709,0.47278 0,0.21275 0.18911,0.40186 0.0709,0.37822 0.21275,0.52006 0.16547,0.11819 0.35458,0.21274 0.21275,0.0709 0.40186,0.21275 0.18912,0.1182 0.30731,0.49642 0.0709,0.18911 0.23639,0.80372 0.18911,0.61461 0.37822,1.30014 0.18911,0.68553 0.33094,1.2765 0.14184,0.56733 0.14184,0.70917 0,0.26002 -0.28367,0.49641 -0.26003,0.21275 -0.40186,0.47278 -0.14183,0.23639 -0.26003,0.56733 -0.14183,0.40186 -0.56733,0.73281 -0.40186,0.3073 -0.92192,0.56733 -0.52005,0.26003 -1.06375,0.47278 -0.54369,0.18911 -0.89827,0.33094 -0.21275,0.0946 -0.47278,0.0946 -0.26003,-0.0236 -0.47278,0.0709 -0.26003,0.0946 -0.49641,0.16548 -0.21275,0.0473 -0.52006,0.0473 -0.21275,0 -0.54369,0 -0.33095,-0.0236 -0.66189,-0.0709 -0.33095,-0.0473 -0.63825,-0.1182 -0.28367,-0.0946 -0.4255,-0.26002 l -0.0946,-0.0236 q -0.0473,0.0236 -0.16547,0.0236 -0.37822,0 -0.59097,-0.33095 -0.21275,-0.35458 -0.30731,-0.66189 -0.18911,-0.11819 -0.33094,-0.37822 -0.14183,-0.28367 -0.23639,-0.61461 -0.0945,-0.33094 -0.14183,-0.66189 -0.0473,-0.33094 -0.0473,-0.54369 0,-0.89828 0.37822,-1.77292 0.37822,-0.87464 1.11103,-1.41833 0.14183,-0.11819 0.23639,-0.23639 0.11819,-0.11819 0.21275,-0.21275 0.11819,-0.11819 0.26003,-0.18911 0.14183,-0.0709 0.37822,-0.0709 0.11819,0 0.23639,0.0473 0.11819,0.0236 0.23639,0.0236 0.28366,0 0.52005,-0.11819 0.26003,-0.14184 0.52006,-0.14184 0.40186,0 0.78008,0.16548 0.37822,0.16547 0.82736,0.16547 0.18911,0 0.33094,0.0945 0.14184,0.0946 0.30731,0.14184 0.14183,-0.0236 0.14183,-0.23639 0,-0.49642 -0.16547,-1.3947 -0.16547,-0.89827 -0.37822,-1.86747 -0.21275,-0.99283 -0.4255,-1.89111 -0.21275,-0.89827 -0.33095,-1.44197 -0.0709,-0.3073 -0.14183,-0.59097 -0.0473,-0.30731 -0.0473,-0.61461 0,-0.47278 0.0473,-0.73281 0.0709,-0.28366 0.37822,-0.61461 0.23639,0.59098 0.56734,1.13467 0.33094,0.54369 0.44913,1.18194 0.0946,0.21275 0.16548,0.26003 0.0945,0.0236 0.0945,0.30731 0,0.0473 0.0473,0.23638 0.0709,0.16548 0.14183,0.37823 0.0709,0.21275 0.14184,0.40186 0.0945,0.16547 0.14183,0.23639 l 0.11819,-0.44914 0.37823,0.0709 q -0.0473,0.0473 -0.0946,0.1182 -0.0473,0.0473 -0.0473,0.11819 0,0.0946 0.1182,0.18911 0.14183,0.0709 0.18911,0.14184 l -0.26003,0.16547 0.16547,0.49642 0.49642,-0.0946 q 0,0.21275 -0.0236,0.44914 -0.0236,0.21275 -0.0236,0.4255 0,0.14183 0.21275,0.23639 l -0.0236,0.21275 q -0.0709,0.0709 -0.18911,0.0709 -0.0946,0 -0.14183,-0.0473 -0.0473,-0.0709 -0.1182,-0.1182 z m -1.37105,5.76789 q -0.47278,-0.1182 -0.851,-0.26003 -0.37822,-0.16547 -0.89828,-0.16547 -0.49641,0 -0.80372,0.33094 -0.0709,0.0946 -0.21275,0.28367 -0.14183,0.16547 -0.28367,0.35458 -0.11819,0.18911 -0.21275,0.37822 -0.0945,0.18911 -0.0945,0.30731 0,0.16547 0.0473,0.3073 0.0473,0.14184 0.26002,0.14184 0.49642,0 1.01648,-0.21275 0.52005,-0.21275 1.01647,-0.21275 0.37822,0 0.68552,-0.26003 0.33095,-0.28367 0.5437,-0.54369 z m 1.65472,-4.86961 v -0.56733 l 0.33094,0.26002 0.0946,-0.26002 q 0.14183,0.14183 0.14183,0.3073 0,0.14183 -0.0946,0.28367 -0.0709,0.11819 -0.1182,0.23639 z m -0.0709,-1.89111 -0.61461,0.16547 0.26003,0.5437 z m 0.63825,3.68766 v -0.14183 q 0,-0.14183 -0.0946,-0.14183 -0.0709,-0.0236 -0.18911,-0.0709 z m -1.48925,-4.32591 0.0946,-0.0236 -0.0236,-0.21275 -0.14183,0.0236 z m -4.53866,8.55727 h -0.0946 l -0.0236,0.0946 0.11819,0.0946 z"
       style="stroke-width:1.10807216"
       id="path107" />
    <path
       d="m 122.71178,322.829 q -0.4255,0 -0.78009,-0.30731 -0.11819,-0.11819 -0.16547,-0.28366 -0.0236,-0.18911 -0.14183,-0.33095 -0.0473,-0.0946 -0.0946,-0.18911 -0.0473,-0.0945 -0.0473,-0.21275 0,-0.14183 0.0473,-0.26003 0.0473,-0.14183 0.0946,-0.26002 0.16547,-0.40187 0.35458,-0.56734 0.18911,-0.18911 0.5437,-0.37822 h 0.0473 q 0.0709,0 0.0946,0.0236 0.0709,0.0946 0.16547,0.14183 0.0946,0.0473 0.14184,0.16548 0.14183,0.35458 0.3073,0.59097 0.14183,0.21275 0.30731,0.3073 0.18911,0.0709 0.35458,0.1182 0.16547,0.0473 0.28367,0.14183 0.11819,0.0709 0.11819,0.26003 0,0.11819 -0.0946,0.3073 -0.0473,0.1182 -0.14183,0.21275 -0.0709,0.0946 -0.11819,0.21275 -0.0709,0.1182 -0.23639,0.18911 -0.16547,0.0473 -0.35459,0.0709 -0.18911,0.0236 -0.37822,0.0473 -0.18911,0 -0.3073,0 z m -0.28367,5.08236 q 0.21275,0 0.30731,0.0709 0.11819,0.0473 0.11819,0.26003 0,0.68553 -0.4255,0.92192 -0.4255,0.23638 -1.01647,0.23638 -0.44914,0 -0.61461,-0.0473 -0.16547,-0.0709 -0.23639,-0.16548 -0.0473,-0.11819 -0.0709,-0.26002 0,-0.14184 -0.14183,-0.28367 -0.21275,-0.18911 -0.21275,-0.49642 0,-0.21275 0.0709,-0.47277 0.0709,-0.28367 0.21275,-0.52006 0.14183,-0.23639 0.33094,-0.40186 0.21275,-0.16547 0.47278,-0.16547 0.0945,0 0.18911,0.14183 0.11819,0.1182 0.18911,0.28367 0.0946,0.16547 0.16547,0.35458 0.0946,0.16547 0.14184,0.23639 0.0473,0.0946 0.11819,0.16547 0.0709,0.0709 0.14183,0.14184 z"
       style="stroke-width:1.10807216"
       id="path109" />
    <path
       d="m 135.2884,320.46511 q -0.0473,0.66189 -0.1182,1.32378 -0.0473,0.66189 -0.0473,1.32377 0,0.40187 0.0236,0.851 0.0473,0.44914 0.14184,0.87464 0.11819,0.4255 0.33094,0.80372 0.21275,0.35459 0.56733,0.59098 0.40186,0.26002 0.87464,0.4255 0.47278,0.16547 0.94556,0.16547 0.49641,0 1.08738,-0.14184 0.59098,-0.16547 1.15831,-0.40186 0.59097,-0.26002 1.13467,-0.54369 0.54369,-0.28367 0.94555,-0.56733 0.52006,-0.33095 1.06375,-0.56734 0.54369,-0.23639 1.01647,-0.63825 0.0946,-0.0473 0.21275,-0.14183 0.1182,-0.11819 0.23639,-0.11819 0.11819,0 0.26003,0.21275 0.16547,0.21275 0.26002,0.33094 l -0.70916,1.1583 0.63825,-0.0709 q -0.1182,0.4255 -0.26003,0.851 -0.14183,0.40186 -0.47278,0.7328 -1.32377,1.2765 -2.97849,1.89111 -1.63109,0.59097 -3.45128,0.59097 -0.61461,0 -1.22922,-0.0473 -0.59097,-0.0709 -1.15831,-0.28367 -1.01647,-0.35458 -1.86747,-1.11103 -0.82736,-0.78008 -1.44197,-1.77291 -0.61461,-0.99283 -0.96919,-2.10386 -0.33095,-1.13467 -0.33095,-2.17478 0,-0.7328 0.1182,-1.56016 0.11819,-0.851 0.33094,-1.702 0.23639,-0.851 0.52006,-1.65472 0.3073,-0.80373 0.66189,-1.46561 0.3073,-0.5437 0.7328,-1.01648 0.4255,-0.47277 0.89828,-0.89827 0.37822,-0.33095 0.80372,-0.5437 0.4255,-0.21275 0.92192,-0.21275 0.21275,0 0.40186,0.0709 0.18911,0.0473 0.37822,0.0473 0.11819,0 0.18911,-0.0236 0.0945,-0.0473 0.18911,-0.0473 0.16547,0 0.40186,0.0946 1.01647,0.28366 1.77292,0.99283 0.75644,0.70917 1.48925,1.41833 0.0473,0.0473 0.0945,0.1182 0.0709,0.0473 0.14183,0.0946 0.26003,0.1182 0.40187,0.23639 0.16547,0.0946 0.26002,0.23639 0.0946,0.14183 0.16547,0.33094 0.0709,0.16548 0.16548,0.4255 -0.18911,0.30731 -0.35459,0.47278 -0.14183,0.16547 -0.56733,0.16547 -0.18911,0 -0.3073,-0.0709 -0.0946,-0.0946 -0.21275,-0.23639 -0.18912,-0.23639 -0.49642,-0.47278 -0.28367,-0.23639 -0.61461,-0.4255 -0.33095,-0.21275 -0.68553,-0.33094 -0.33094,-0.14184 -0.63825,-0.14184 -0.40186,0 -0.75644,0.35459 -0.35459,0.33094 -0.5437,0.63825 -0.54369,0.82736 -0.89827,1.5838 -0.33095,0.75644 -0.5437,1.702 -0.0236,0.11819 -0.11819,0.21275 -0.0709,0.0709 -0.16547,0.16547 z m -1.04011,2.74211 q 0,-0.0946 0,-0.16547 0.0236,-0.0946 0.0236,-0.16547 0,-0.21275 -0.21275,-0.21275 l -0.11819,0.0236 q 0.0709,0.18912 0.11819,0.28367 0.0473,0.0709 0.18912,0.23639 z"
       style="stroke-width:1.10807216"
       id="path111" />
    <path
       d="m 159.11084,319.99233 0.26003,1.08739 -0.14184,0.0946 -0.11819,-0.30731 -0.0946,0.0473 v 1.01647 q 0.35459,0.0946 0.37822,0.28367 0.0236,0.16547 0.0236,0.44914 0,0.18911 0.0236,0.40186 0.0236,0.21275 0.0473,0.40186 l -0.18911,-0.14184 h -0.0946 q -0.16547,0 -0.16547,0.1182 0,0.0946 0.0236,0.16547 0.0473,0.0709 0.0236,0.16547 l 0.4255,-0.3073 q 0.0236,0.35458 0.0236,0.70916 0.0236,0.35459 0.0236,0.70917 0,0.28367 -0.14184,0.54369 -0.11819,0.26003 -0.11819,0.52006 0,0.18911 0.14183,0.33094 -0.0709,0.18911 -0.14183,0.49642 -0.0473,0.28367 -0.14183,0.56733 -0.0946,0.26003 -0.26003,0.47278 -0.16547,0.18911 -0.40186,0.18911 -0.35459,0 -0.70917,-0.0473 -0.33094,-0.0473 -0.68553,-0.0946 -0.18911,-0.33095 -0.40186,-0.61461 -0.18911,-0.30731 -0.35458,-0.59097 -0.16547,-0.30731 -0.30731,-0.63825 -0.11819,-0.33095 -0.16547,-0.73281 -0.0473,-0.37822 -0.16547,-0.7328 -0.0946,-0.35459 -0.18911,-0.73281 -0.0473,-0.26003 -0.0946,-0.52005 -0.0236,-0.28367 -0.0709,-0.5437 -1.01647,0.18911 -1.96203,0.47278 -0.94555,0.28367 -1.98566,0.40186 -0.21275,0.0473 -0.35459,0.0709 -0.14183,0.0236 -0.14183,0.28366 0,0.26003 0,0.52006 0.0236,0.26003 0.0236,0.52005 0,0.52006 -0.0709,1.04011 -0.0473,0.49642 -0.18911,0.99284 -0.14183,0.47277 -0.37822,0.92191 -0.21275,0.4255 -0.40186,0.851 -0.0946,0.16547 -0.16547,0.28367 -0.0473,0.11819 -0.26003,0.16547 -0.35459,0.0473 -0.70917,0.0709 -0.35458,0 -0.70916,0.0473 -0.73281,-0.80372 -0.9692,-1.77291 -0.11819,-0.49642 -0.26003,-0.92192 -0.11819,-0.4255 -0.26002,-0.851 -0.1182,-0.4255 -0.21275,-0.87463 -0.0709,-0.44914 -0.0709,-0.99284 0,-1.39469 0.0946,-2.76575 0.11819,-1.39469 0.21275,-2.76574 0.0709,-1.08739 0.11819,-2.15114 0.0709,-1.08739 0.18911,-2.17478 0.0473,-0.44914 0.21275,-0.78008 0.16547,-0.35458 0.63825,-0.49642 0.0709,0.1182 0.18911,0.40186 0.1182,0.26003 0.26003,0.5437 0.14183,0.28367 0.28367,0.49641 0.16547,0.21275 0.28366,0.21275 0.14183,0 0.30731,0.14184 0.18911,0.14183 0.33094,0.33094 0.16547,0.18911 0.30731,0.40186 0.14183,0.18911 0.23639,0.30731 -0.16548,0.0945 -0.16548,0.23639 0,0.21275 0.16548,0.33094 0.35458,0.26003 0.35458,0.5437 0.0236,0.28366 0.0945,0.66188 0.14184,0.75645 0.18911,1.56017 0.0709,0.78008 0.0709,1.56016 0,0.0946 0,0.26003 0.0236,0.16547 0.0709,0.33095 0.0473,0.16547 0.11819,0.28366 0.0946,0.1182 0.23639,0.1182 0.1182,0 0.18911,-0.0709 0.14184,-0.0946 0.37822,-0.16547 0.26003,-0.0709 0.5437,-0.0946 0.28366,-0.0473 0.54369,-0.0473 0.28367,-0.0236 0.44914,-0.0236 0.0473,0 0.0709,-0.0236 0.11819,-0.0473 0.21275,-0.0946 0.0945,-0.0473 0.21275,-0.0946 0.28366,-0.0473 0.56733,-0.0473 0.28367,-0.0236 0.54369,-0.1182 0.4255,-0.14183 0.4255,-0.54369 0.0946,-1.04011 0.1182,-2.05658 0.0473,-1.04011 0.16547,-2.08022 0.0473,-0.49642 0.18911,-1.06375 0.14183,-0.56733 0.26003,-1.04011 0.0709,-0.28367 0.26003,-0.4255 0.18911,-0.16547 0.44914,-0.26003 0.0473,0.0709 0.21274,0.4255 0.18912,0.33095 0.37823,0.70917 0.21275,0.35458 0.37822,0.66189 0.16547,0.3073 0.16547,0.33094 0,0.0946 -0.0473,0.16547 -0.0236,0.0709 -0.0236,0.16547 0,0.18911 0.30731,0.28367 l 0.18911,-0.87464 q 0.0473,0.33095 0.11819,0.52006 0.0946,0.18911 0.49642,0.11819 -0.40186,0.47278 -0.94555,0.37822 0.0473,0.30731 0.18911,0.35459 0.14183,0.0473 0.4255,0.0945 l -0.30731,0.92192 0.0473,0.0236 0.14183,0.18911 q -0.26002,0.14183 -0.28366,0.47278 -0.0236,0.3073 -0.0236,0.56733 0,0.18911 0.0945,0.35458 0.1182,0.14183 0.23639,0.26003 l -0.0236,-1.67836 0.61461,0.18911 q 0.0236,0.11819 0.0709,0.35458 0.0473,0.23639 0.0709,0.49642 0.0236,0.23639 0.0473,0.47278 0.0236,0.21275 0.0236,0.33094 0,0.1182 -0.0236,0.21275 -0.0236,0.0709 -0.0473,0.16547 z m -0.78009,1.46561 q 0.0236,0.26003 0.0236,0.49642 0.0236,0.21275 0.0236,0.47278 0.0709,-0.1182 0.18911,-0.26003 0.1182,-0.16547 0.1182,-0.30731 0,-0.14183 -0.1182,-0.23638 -0.11819,-0.0946 -0.23639,-0.16548 z m -0.14183,1.702 q -0.0236,0.0473 -0.0236,0.14184 0,0.18911 0.16547,0.28366 0.16548,0.0946 0.26003,0.23639 0.0236,-0.0946 0.0473,-0.16547 0.0236,-0.0946 0.0236,-0.18911 0,-0.16547 -0.18911,-0.21275 -0.16547,-0.0473 -0.28367,-0.0946 z m 0.4255,3.33308 q 0.0709,-0.0709 0.18911,-0.18911 0.1182,-0.11819 0.1182,-0.21275 0,-0.11819 -0.0946,-0.16547 -0.0709,-0.0709 -0.16547,-0.0709 -0.18911,0 -0.18911,0.16548 0,0.11819 0.0709,0.23638 0.0709,0.0946 0.0709,0.23639 z m 0,0.92192 0.1182,-0.61461 -0.35459,0.18911 z m 0.68553,-3.19125 h -0.16547 v 0.73281 h 0.0709 z m -0.82736,-4.42047 -0.16547,-0.11819 q -0.0946,0.0473 -0.18911,0.18911 l 0.18911,0.16547 z m 0.21275,3.16761 q -0.0946,-0.18911 -0.16547,-0.23639 -0.0473,-0.0709 -0.26003,-0.0709 h -0.16547 z m 0.4255,0.0946 q 0,0.16547 0.18911,0.26002 l -0.0946,-0.47277 q -0.0945,0.14183 -0.0945,0.21275 z m 0,-3.07306 q -0.26003,0 -0.26003,0.21275 0,0.0473 0,0.0946 0.0236,0.0236 0.0236,0.0709 z m -9.47919,-0.66189 h 0.0709 v -0.40186 h -0.0946 z m 8.27361,-2.52935 v 0.11819 l 0.3073,-0.0473 v -0.0946 z m 1.41833,8.72274 -0.18911,-0.0473 -0.0473,0.0946 0.0945,0.0709 z"
       style="stroke-width:1.10807216"
       id="path113" />
    <path
       d="m 172.9248,319.25953 q 0.0236,0.23639 0.14184,0.40186 0.14183,0.14183 0.28366,0.35458 0.16548,0.18911 0.28367,0.52006 0.11819,0.3073 0.16547,0.89827 0.35459,0.18912 0.35459,0.59098 0,0.16547 -0.0473,0.3073 -0.0236,0.14183 -0.0236,0.30731 0,0.21275 0.18911,0.49641 0.18911,0.28367 0.18911,0.80372 0,0.30731 -0.0473,0.66189 -0.0473,0.35459 -0.16547,0.66189 -0.0473,0.14183 -0.23639,0.26003 -0.16547,0.11819 -0.28366,0.21275 0.23638,0.23639 0.23638,0.49642 0,0.18911 -0.0945,0.35458 -0.0946,0.16547 -0.21275,0.33094 -1.04011,1.41834 -2.50572,1.96203 -1.44197,0.52005 -3.14397,0.52005 -1.22922,0 -2.36389,-0.3073 -1.22922,-0.33095 -2.17478,-1.15831 -0.94555,-0.82736 -1.60744,-1.93838 -0.63825,-1.11103 -0.96919,-2.36389 -0.33095,-1.2765 -0.33095,-2.45844 0,-0.82736 0.14184,-2.00931 0.14183,-1.20558 0.47277,-2.36388 0.35459,-1.15831 0.94556,-2.10386 0.59097,-0.9692 1.51289,-1.32378 0.37822,-0.14183 0.61461,-0.33095 0.26003,-0.18911 0.7328,-0.18911 0.35459,0 0.66189,0.14184 0.33095,0.14183 0.61461,0.35458 0.35458,0.28367 0.75645,0.40186 0.40186,0.1182 0.80372,0.23639 0.40186,0.11819 0.75644,0.3073 0.37822,0.16548 0.68553,0.56734 0.47278,0.63825 0.94555,1.2765 0.47278,0.61461 0.94556,1.25286 l 0.52005,-0.18911 q 0.44914,0.47277 0.82736,0.94555 0.40186,0.44914 0.49642,1.13467 l -0.49642,-0.40186 q 0.0236,0.21275 0.1182,0.33094 0.0945,0.11819 0.3073,0.0473 z m -7.09166,-3.38036 q -0.21275,0.0709 -0.44914,0.54369 -0.21275,0.47278 -0.40186,1.08739 -0.16547,0.59097 -0.28366,1.15831 -0.1182,0.56733 -0.1182,0.78008 l 0.0236,0.21275 q 0,0.26003 -0.14183,0.49642 -0.1182,0.21275 -0.1182,0.44913 0,0.30731 0.0473,0.89828 0.0473,0.59097 0.14183,1.22922 0.0946,0.63825 0.18912,1.20558 0.11819,0.56734 0.26002,0.82737 0.14184,0.26002 0.35459,0.4255 0.21275,0.16547 0.47277,0.28366 0.26003,0.0946 0.5437,0.16547 0.28366,0.0709 0.54369,0.16548 0.0236,0 0.0946,0.0473 0.0946,0.0236 0.11819,0.0236 0.0946,0 0.30731,-0.0709 0.23639,-0.0709 0.47277,-0.16548 0.26003,-0.0946 0.47278,-0.18911 0.23639,-0.0945 0.35458,-0.14183 0.28367,-0.14183 0.61462,-0.33094 0.33094,-0.18912 0.47277,-0.49642 0.26003,-0.47278 0.4255,-0.99283 0.18911,-0.5437 0.18911,-1.08739 0,-0.68553 -0.3073,-1.37106 -0.28367,-0.68552 -0.44914,-1.34741 -0.18911,-0.70917 -0.61461,-1.25286 -0.40186,-0.5437 -0.94556,-0.9692 -0.52005,-0.44913 -1.13466,-0.82736 -0.59097,-0.37822 -1.13467,-0.75644 z m 7.56444,9.05369 q 0.0473,-0.0236 0.16547,-0.0473 0.14184,-0.0236 0.14184,-0.0709 -0.0236,-0.0709 -0.1182,-0.21275 z m 0.0946,-0.78009 0.14183,-0.18911 -0.0709,-0.16547 -0.14183,0.1182 z"
       style="stroke-width:1.10807216"
       id="path115" />
    <path
       d="m 191.66932,317.62845 q 0.28367,0.35458 0.40186,0.78008 0.14184,0.40186 0.21275,0.851 0.0709,0.44914 0.1182,0.89828 0.0709,0.42549 0.26002,0.82736 0.0473,0.11819 0.0946,0.52005 0.0709,0.37822 0.14183,0.92192 0.0709,0.54369 0.14184,1.1583 0.0709,0.61461 0.11819,1.18195 0.0473,0.56733 0.0709,0.99283 0.0473,0.4255 0.0473,0.59097 0,0.33094 -0.0236,0.7328 0,0.37823 -0.0709,0.75645 -0.0709,0.35458 -0.26003,0.66189 -0.16547,0.28366 -0.52005,0.44914 -1.08739,0.44913 -2.15114,0.44913 -1.13467,0 -2.29297,-0.52005 -1.15831,-0.52006 -1.98567,-1.2765 -0.4255,-0.37822 -0.87463,-0.70917 -0.44914,-0.35458 -0.80373,-0.80372 -0.26002,-0.33094 -0.59097,-0.56733 -0.3073,-0.26003 -0.59097,-0.56733 -0.40186,-0.40186 -0.75644,-0.82736 -0.33095,-0.44914 -0.73281,-0.851 -0.0945,-0.0946 -0.18911,-0.1182 -0.0946,-0.0473 -0.21275,-0.14183 -0.14183,-0.1182 -0.28367,-0.28367 -0.14183,-0.16547 -0.26002,-0.3073 l -0.23639,0.0709 q -0.1182,-0.14183 -0.37822,-0.37822 -0.26003,-0.23639 -0.56734,-0.47278 -0.28366,-0.23638 -0.56733,-0.4255 -0.28367,-0.18911 -0.44914,-0.23638 l -0.33094,0.851 q 0.21275,0.0946 0.3073,0.28366 0.0946,0.16547 0.1182,0.37822 0.0473,0.21275 0.0236,0.44914 0,0.23639 0,0.4255 0,0.23639 0.0473,0.44914 0.0473,0.21275 0.16548,0.40186 l 0.0236,0.18911 q -0.14183,0.21275 -0.14183,0.44914 0,0.26003 0.16547,0.49642 l -0.21275,0.28366 0.28367,0.52006 q -0.23639,0.21275 -0.47278,0.28367 -0.23639,0.0473 -0.47278,0.0473 -0.23638,0 -0.49641,-0.0236 -0.23639,-0.0236 -0.49642,0.0236 -0.35458,-0.40186 -0.59097,-0.851 -0.21275,-0.47277 -0.35458,-0.94555 -0.14184,-0.49642 -0.23639,-0.99283 -0.0946,-0.52006 -0.18911,-1.04011 -0.0709,-0.37823 -0.16547,-0.87464 -0.0946,-0.49642 -0.18912,-1.01647 -0.0709,-0.52006 -0.14183,-0.99284 -0.0709,-0.49641 -0.0709,-0.851 0,-0.33094 0.16548,-0.56733 0.21275,-0.3073 0.23639,-0.61461 0.0473,-0.33094 0.11819,-0.63825 0.0709,-0.3073 0.26003,-0.56733 0.18911,-0.26003 0.70916,-0.47278 0.40186,0.14183 1.01647,0.63825 0.61462,0.49642 1.2765,1.11103 0.66189,0.61461 1.30014,1.20558 0.63825,0.59097 1.06375,0.89828 0.26003,0.18911 0.49642,0.44914 0.26003,0.26002 0.56733,0.40186 0.14183,0.28366 0.35458,0.47277 0.21275,0.16548 0.44914,0.33095 0.26003,0.16547 0.49642,0.3073 0.26003,0.14184 0.47278,0.35459 l 1.30013,1.25286 q 0.70917,0.70916 1.53653,1.18194 0.851,0.44914 1.82019,0.70917 0.0236,-0.14184 0.0473,-0.26003 0.0236,-0.14183 0.0236,-0.28367 l -0.0236,-0.11819 q -0.0945,-1.04011 -0.21275,-2.05658 -0.11819,-1.04011 -0.26003,-2.08023 -0.18911,-1.27649 -0.44913,-2.45844 -0.23639,-1.20558 -0.23639,-2.48208 0,-0.35458 0,-0.75644 0,-0.4255 0.0709,-0.80372 0.0946,-0.40187 0.28367,-0.70917 0.18911,-0.33095 0.56733,-0.52006 0.16547,0.30731 0.35459,0.61461 0.18911,0.28367 0.33094,0.59098 0.0473,0.0709 0.0473,0.16547 0.0236,0.0709 0.0709,0.11819 0.30731,0.28367 0.37823,0.44914 0.0709,0.16547 0.14183,0.56733 l 0.59097,0.30731 0.0236,-0.0236 v 0.0236 l 0.54369,0.92192 0.28367,-0.0709 0.40186,1.11103 -0.33094,0.11819 0.33094,0.63825 z m -1.44197,-1.74928 q 0.0946,0 0.18911,-0.18911 l -0.47278,0.14183 q 0.18911,0.0473 0.28367,0.0473 z m 0.87464,1.13467 q -0.0473,0.0473 -0.0946,0.0945 -0.0236,0.0236 -0.0473,0.0709 l 0.0945,0.0946 q 0.0473,-0.0236 0.0946,-0.0473 0.0473,-0.0473 0.0945,-0.0946 z"
       style="stroke-width:1.10807216"
       id="path117" />
    <path
       d="m 197.24071,317.22659 -0.14184,-0.49642 q -0.26002,0.21275 -0.26002,0.52005 0,0.35459 0.0945,0.80373 0.1182,0.4255 0.16547,0.80372 l 0.30731,-0.0946 -0.0236,0.18911 -0.35458,0.56734 q 0.14183,-0.0236 0.28366,-0.0473 0.14184,-0.0236 0.26003,-0.0236 0.26003,0 0.35458,0.14183 0.0946,0.1182 0.14184,0.33095 0.0473,0.28366 0.11819,0.56733 0.0946,0.26003 0.16547,0.54369 0.18912,-0.11819 0.35459,-0.23639 0.18911,-0.11819 0.33094,-0.28366 0.26003,-0.30731 0.44914,-0.63825 0.21275,-0.35458 0.49642,-0.63825 0.23639,-0.23639 0.68552,-0.59097 0.47278,-0.37822 1.06375,-0.80372 0.59097,-0.4255 1.22922,-0.851 0.63825,-0.44914 1.22923,-0.78009 0.61461,-0.35458 1.11102,-0.56733 0.49642,-0.23639 0.78009,-0.23639 0.18911,0 0.3073,0.1182 0.1182,0.11819 0.21275,0.26002 0.30731,0.4255 0.56733,0.70917 0.26003,0.28367 0.66189,0.61461 -0.0709,0.16547 -0.11819,0.30731 -0.0236,0.14183 -0.14184,0.26002 -1.11102,1.32378 -2.26933,2.57664 -1.1583,1.25286 -2.22205,2.62392 0.11819,0.0473 0.21275,0.11819 0.0945,0.0473 0.21275,0.0709 0.28366,0.0946 0.54369,0.0946 0.28367,0 0.4255,0.33095 0.1182,0 0.30731,0.0236 0.21275,0.0236 0.28366,0.0709 0.47278,0.30731 1.01648,0.44914 0.54369,0.14183 0.94555,0.54369 0.18911,0.21275 0.44914,0.33095 0.28367,0.11819 0.56733,0.18911 0.1182,0.0473 0.40186,0.23639 0.30731,0.18911 0.63825,0.4255 0.35459,0.21275 0.66189,0.44914 0.30731,0.23639 0.44914,0.33094 0.33094,0.23639 0.68553,0.70917 0.37822,0.44914 0.63825,0.78008 l -0.18911,0.11819 1.01647,0.30731 q -0.0473,0.0473 -0.18911,0.18911 -0.14184,0.14183 -0.21275,0.14183 -0.0946,0 -0.18912,-0.0236 -0.0945,-0.0236 -0.21275,-0.0236 -0.21274,0 -0.42549,0.0236 -0.21275,0.0236 -0.4255,0.0236 -0.21275,0 -0.5437,-0.11819 -0.33094,-0.14183 -0.68553,-0.30731 -0.35458,-0.18911 -0.68552,-0.40186 -0.30731,-0.21275 -0.47278,-0.35458 -0.0709,-0.0946 -0.30731,-0.14183 -0.49641,-0.0709 -0.87463,-0.16548 -0.37823,-0.11819 -0.73281,-0.26002 -0.33094,-0.16548 -0.68553,-0.35459 -0.33094,-0.21275 -0.7328,-0.49641 -0.0946,-0.0473 -0.18911,-0.0473 -0.0946,0.0473 -0.16547,0.0473 -0.23639,0 -0.4255,-0.21275 -0.16548,-0.21275 -0.35459,-0.26003 -0.3073,-0.0709 -0.52005,-0.14183 -0.21275,-0.0946 -0.40186,-0.18911 -0.16548,-0.1182 -0.35459,-0.26003 -0.16547,-0.14183 -0.40186,-0.35458 -0.0709,-0.0473 -0.18911,-0.14184 -0.11819,-0.0945 -0.23639,-0.0945 -0.11819,0 -0.40186,0.33094 -0.26003,0.33095 -0.56733,0.75644 -0.30731,0.4255 -0.59097,0.82737 -0.26003,0.37822 -0.35459,0.52005 -0.18911,0.30731 -0.28366,0.63825 -0.0709,0.33094 -0.18911,0.66189 -0.18911,0.49641 -0.52006,0.70916 -0.3073,0.18912 -0.80372,0.23639 -0.33094,0.18911 -0.70917,0.18911 -0.3073,0 -0.59097,-0.0709 -0.28366,-0.0709 -0.61461,-0.0709 -0.18911,-0.0236 -0.3073,-0.0709 -0.1182,-0.0709 -0.21275,-0.26002 -0.1182,-0.21275 -0.28367,-0.52006 -0.14183,-0.3073 -0.30731,-0.63825 -0.16547,-0.33094 -0.28366,-0.63825 -0.0946,-0.3073 -0.0946,-0.54369 0,-0.61461 0.0473,-1.20558 0.0473,-0.59098 0.0473,-1.20559 0,-1.2765 -0.0709,-2.52936 -0.0709,-1.27649 -0.0709,-2.55299 0,-0.61461 0.0236,-1.22923 0.0473,-0.63824 0.0473,-1.27649 0,-0.61462 -0.0473,-1.20559 -0.0236,-0.59097 -0.0236,-1.20558 0,-0.16547 0,-0.37822 0.0236,-0.23639 0.0709,-0.44914 0.0709,-0.21275 0.18911,-0.35458 0.14184,-0.14184 0.37822,-0.14184 h 0.0946 l 1.13467,1.89111 0.63825,-0.14183 q 0.0709,0.16547 0.16547,0.4255 0.0945,0.26003 0.18911,0.54369 0.0945,0.28367 0.16547,0.56734 0.0709,0.26002 0.0709,0.40186 0,0.47278 -0.4255,0.70916 z m 0.66189,3.64038 0.0945,-0.0236 -0.0945,-1.11102 -0.35459,0.70916 z m -0.66189,-3.61675 h 0.52005 l -0.40186,0.44914 z m 0.23639,3.9477 -0.18911,0.0236 q 0.0236,0.0473 0,0.1182 0,0.0709 0,0.11819 0,0.1182 0.0709,0.21275 0.0709,0.0946 0.16547,0.14184 z"
       style="stroke-width:1.10807216"
       id="path119" />
    <path
       d="m 225.94309,314.36628 q -1.13466,0.37822 -2.31661,0.5437 -1.18194,0.14183 -2.36389,0.33094 -0.63824,0.11819 -1.1583,0.18911 -0.49642,0.0473 -0.96919,0.0946 -0.47278,0.0473 -0.99284,0.0709 -0.49641,0 -1.1583,0 -0.40186,0 -0.59097,0.23639 -0.18911,0.21275 -0.28367,0.5437 -0.0709,0.3073 -0.0945,0.66188 -0.0236,0.35459 -0.0946,0.63825 v 0.0473 q 0,0.14183 0.0236,0.5437 0.0236,0.37822 0.0709,0.78008 0.0709,0.40186 0.18911,0.70916 0.11819,0.30731 0.3073,0.30731 0.0946,0 0.1182,-0.0236 0.99283,-0.28367 1.96202,-0.47278 0.9692,-0.18911 2.03295,-0.18911 0.0945,0 0.21275,0.0709 0.0236,0.18911 0.11819,0.18911 0.11819,0 0.23639,0.0473 0.16547,0.0236 0.33094,0.16547 0.18911,0.14183 0.33095,0.23639 -1.2765,0.54369 -2.62392,0.89828 -1.34741,0.35458 -2.71847,0.52005 l -0.26003,0.75644 q 0.18912,0.61462 0.23639,1.22923 0.0709,0.59097 0.0709,1.20558 0,0.70916 -0.14183,1.41833 0.26002,0.1182 0.28366,0.18911 0.0473,0.0473 0.0473,0.0946 0.0236,0.0236 0.0946,0.0236 0.0945,0 0.44913,0 0.23639,0 0.18912,0.26002 0.0945,0.0709 0.21275,0.0709 0.37822,0 0.75644,-0.16547 0.40186,-0.18911 0.78008,-0.18911 0.16547,0 0.30731,0.0473 0.16547,0.0236 0.33094,0.0236 0.4255,0 0.68553,-0.23638 l 0.11819,-0.0236 q 0.1182,0.18911 0.33095,0.18911 0.16547,0 0.3073,-0.0473 0.16547,-0.0709 0.33095,-0.0709 v 0.33095 h 0.0473 q 0.1182,0 0.18912,-0.0473 0.0945,-0.0473 0.21275,-0.0473 0.0945,0 0.28366,0.18911 0.18911,0.16547 0.37822,0.40186 0.18911,0.23639 0.33095,0.49642 0.14183,0.23639 0.16547,0.37822 0.0236,0.0946 0.28367,0.21275 0.28366,0.0946 0.40186,0.14184 -0.1182,0.40186 -0.4255,0.52005 -0.28367,0.11819 -0.66189,0.16547 -0.66189,0.0473 -1.30014,0.14184 -0.63825,0.0946 -1.30014,0.14183 -0.82736,0.0945 -1.67836,0.0945 -0.82736,0 -1.65472,0 -0.35458,0 -0.70916,-0.0473 -0.33095,-0.0473 -0.66189,-0.18911 -0.4255,-0.18912 -0.73281,-0.56734 -0.28366,-0.40186 -0.54369,-0.75644 -0.35458,-0.44914 -0.56733,-1.18194 -0.21275,-0.73281 -0.33095,-1.53653 -0.11819,-0.80372 -0.16547,-1.58381 -0.0236,-0.78008 -0.0236,-1.34741 0,-1.13467 -0.0945,-2.24569 -0.0709,-1.13467 -0.0709,-2.26934 0,-0.59097 0.0236,-1.1583 0.0473,-0.56733 0.18911,-1.08739 0.14183,-0.52005 0.4255,-0.96919 0.3073,-0.47278 0.82736,-0.851 0.23639,-0.18911 0.47278,-0.30731 0.26002,-0.14183 0.56733,-0.14183 0.0945,0 0.16547,0.0236 0.0946,0.0236 0.18911,0.0236 0.33095,0 0.66189,-0.16548 0.35458,-0.18911 0.75644,-0.18911 0.26003,0 0.47278,0.0946 0.21275,0.0946 0.40186,0.21275 0.21275,0.0945 0.4255,0.18911 0.21275,0.0709 0.47278,0.0709 1.06375,0 2.10386,-0.1182 1.06375,-0.11819 2.1275,-0.23639 0.23639,-0.0236 0.44914,-0.0473 0.21275,-0.0473 0.44914,-0.0473 0.35458,0 0.59097,0.11819 0.26002,0.1182 0.44914,0.33095 0.18911,0.18911 0.35458,0.44914 0.16547,0.23638 0.35458,0.49641 z m -10.16471,11.39394 -0.0946,0.26003 0.0946,0.0236 q 0.0473,-0.0473 0.0473,-0.11819 0.0236,-0.0709 0.0473,-0.11819 z m 0.33094,-4.23136 -0.11819,0.0473 0.11819,0.18911 z"
       style="stroke-width:1.10807216"
       id="path121" />
    <path
       d="m 238.23273,321.83617 q 1.06375,0.0946 2.0093,0.59097 0.9692,0.47277 1.91475,0.94555 0.14183,0.0709 0.54369,0.44914 0.4255,0.35458 0.89828,0.80372 0.47278,0.4255 0.87464,0.851 0.4255,0.40186 0.56733,0.56733 0.61461,0.70917 1.30014,1.34742 0.70917,0.61461 1.51289,1.13467 -0.0946,0.35458 -0.30731,0.49641 -0.21275,0.14184 -0.56733,0.18911 -0.35458,0.0236 -0.7328,0.0946 -0.35459,0.0473 -0.70917,0.0473 -0.75644,0 -1.44197,-0.26003 -0.66189,-0.26003 -1.2765,-0.61461 -0.851,-0.47278 -1.67836,-0.99283 -0.80372,-0.5437 -1.63108,-1.01648 -0.44914,-0.26002 -0.92192,-0.4255 -0.44914,-0.18911 -0.89828,-0.4255 -0.14183,-0.0709 -0.44913,-0.26002 -0.28367,-0.18911 -0.61462,-0.37822 -0.3073,-0.21275 -0.59097,-0.35459 -0.26002,-0.16547 -0.33094,-0.18911 -0.5437,-0.14183 -0.87464,-0.35458 -0.33094,-0.21275 -0.66189,-0.68553 -0.18911,-0.28367 -0.4255,-0.56733 -0.23639,-0.30731 -0.44914,-0.61461 -0.21275,-0.33095 -0.35458,-0.66189 -0.14183,-0.33095 -0.14183,-0.68553 0,-0.3073 0.0945,-0.61461 0.0946,-0.3073 0.21275,-0.59097 0.23639,-0.5437 0.59097,-0.89828 0.37823,-0.35458 0.80373,-0.61461 0.4255,-0.28367 0.87463,-0.52005 0.47278,-0.23639 0.89828,-0.56734 0.18911,-0.11819 0.30731,-0.28366 0.11819,-0.16548 0.23639,-0.33095 -0.18912,-0.21275 -0.4255,-0.37822 -0.23639,-0.16547 -0.5437,-0.16547 -0.23639,0 -0.59097,0.11819 -0.33094,0.0946 -0.68553,0.26003 -0.33094,0.16547 -0.63825,0.35458 -0.3073,0.18911 -0.49641,0.35459 -0.23639,0.18911 -0.44914,0.4255 -0.21275,0.21275 -0.5437,0.21275 l -0.0945,0.0946 q -0.0236,0.28367 -0.14183,0.52006 -0.1182,0.21275 -0.30731,0.40186 -0.16547,0.16547 -0.37822,0.35458 -0.18911,0.16547 -0.37822,0.35458 0,0.18911 0.0236,0.37823 0.0236,0.16547 0.0236,0.35458 0,0.35458 -0.16547,0.82736 -0.16547,0.47278 -0.16547,1.01647 0,0.99283 0.11819,2.03294 0.1182,1.04011 0.26003,2.03295 0.0946,0.61461 0.26003,1.32377 0.18911,0.70917 0.18911,1.32378 0,0.33094 -0.11819,0.49642 -0.1182,0.14183 -0.33095,0.18911 -0.18911,0.0473 -0.4255,0.0473 -0.21275,0 -0.4255,0 -0.26003,0 -0.52005,0.0236 -0.23639,0 -0.49642,0 -0.61461,0 -0.80372,-0.0709 -0.16547,-0.0946 -0.18911,-0.21275 -0.0236,-0.14184 -0.0473,-0.28367 0,-0.14183 -0.28367,-0.26003 -0.44913,-0.18911 -0.59097,-0.44913 -0.11819,-0.26003 -0.16547,-0.70917 -0.11819,-0.92192 -0.26003,-1.82019 -0.11819,-0.92192 -0.11819,-1.84384 0,-0.21275 0.0236,-0.4255 0.0236,-0.23638 0.0236,-0.44913 0,-0.18912 -0.0473,-0.33095 -0.0236,-0.16547 -0.0236,-0.35458 0,-0.52006 0.0473,-1.25286 0.0473,-0.75645 0.11819,-1.53653 0.0946,-0.78008 0.23639,-1.48925 0.14183,-0.7328 0.35458,-1.20558 0.18911,-0.47278 0.70917,-0.49642 0.26003,0 0.35458,-0.0945 0.1182,-0.1182 0.23639,-0.33095 0.16547,-0.33094 0.40186,-0.56733 0.23639,-0.23639 0.52006,-0.4255 0.28366,-0.18911 0.56733,-0.35458 0.28367,-0.18911 0.56733,-0.40186 0.5437,-0.40186 1.18195,-0.59097 0.66188,-0.21275 1.25286,-0.5437 0.14183,-0.0473 0.23639,-0.0473 0.18911,0 0.28366,0.0946 0.1182,0.0946 0.37822,0.0946 0.30731,0 0.59098,-0.0473 0.3073,-0.0709 0.63825,-0.0709 0.94555,0 1.46561,0.47278 0.54369,0.47278 1.01647,1.22922 0.23639,0.40186 0.66189,0.61461 0.42549,0.21275 0.82736,0.47278 0.4255,0.23639 0.70916,0.63825 0.30731,0.37822 0.30731,1.08738 0,0.75645 -0.40186,1.37106 -0.37823,0.61461 -0.851,1.11103 -0.44914,0.47277 -0.851,0.82736 -0.37822,0.33094 -0.37822,0.49641 0,0.14184 0.0473,0.30731 0.0709,0.16547 0.1182,0.28367 z"
       style="stroke-width:1.10807216"
       id="path123" />
    <path
       d="m 256.92922,324.03458 0.44914,0.0946 q 0.0473,0.26002 0.1182,0.52005 0.0709,0.23639 0.0709,0.49642 0,0.851 -0.37822,1.60744 -0.37822,0.73281 -0.99283,1.30014 -0.61461,0.56733 -1.39469,0.87464 -0.78009,0.3073 -1.58381,0.26002 h -0.16547 q -0.26003,0.21275 -0.61461,0.21275 -0.21275,0 -0.4255,-0.0473 -0.21275,-0.0473 -0.44914,-0.0473 -0.11819,0 -0.23639,0.0236 -0.0945,0.0236 -0.21275,0.0236 -0.75644,0 -1.08739,-0.44914 -0.33094,-0.47278 -0.52005,-1.08739 -0.0473,-0.18911 -0.21275,-0.26003 -0.16547,-0.0945 -0.16547,-0.26003 0,-0.33094 0.16547,-0.7328 0.16547,-0.4255 0.4255,-0.59097 0.49641,-0.33095 0.99283,-0.61461 0.52006,-0.28367 1.06375,-0.5437 0.11819,-0.0709 0.26003,-0.0709 0.16547,0 0.3073,-0.0473 0.47278,-0.1182 0.87464,-0.49642 0.40186,-0.40186 0.40186,-0.92191 0,-0.16548 -0.14183,-0.5437 -0.1182,-0.37822 -0.30731,-0.78008 -0.18911,-0.4255 -0.37822,-0.75644 -0.18911,-0.35459 -0.33094,-0.4255 -0.49642,-0.26003 -0.78009,-0.56734 -0.26002,-0.3073 -0.56733,-0.78008 -0.14183,-0.18911 -0.26003,-0.23639 -0.40186,-0.14183 -0.82736,-0.49641 -0.40186,-0.35459 -0.75644,-0.80373 -0.33094,-0.47277 -0.56733,-0.96919 -0.21275,-0.49642 -0.21275,-0.92192 0,-0.40186 0.28366,-0.82736 0.28367,-0.4255 0.70917,-0.78008 0.4255,-0.35458 0.89828,-0.59097 0.47277,-0.23639 0.82736,-0.26003 0.0473,0.0236 0.16547,0.0236 0.16547,0 0.23639,-0.14183 0.0945,-0.14184 0.14183,-0.26003 l 0.18911,0.28367 q 0.0473,-0.0236 0.14184,-0.0946 0.11819,-0.0709 0.23638,-0.16547 0.14184,-0.0946 0.23639,-0.16547 0.1182,-0.0946 0.18911,-0.14184 h 0.16548 q 0.52005,0.26003 1.06374,0.37822 0.56734,0.0946 1.01648,0.44914 0.44913,0.35459 0.82736,0.78009 0.40186,0.40186 0.78008,0.80372 -0.0946,0.0473 -0.18911,0.0945 -0.0946,0.0473 -0.21275,0.0473 -0.59097,0 -1.13467,-0.16547 -0.54369,-0.18911 -1.08739,-0.18911 -0.28366,0 -0.68552,0.16547 -0.37822,0.14183 -0.78009,0.37822 -0.37822,0.23639 -0.70916,0.49642 -0.33095,0.23639 -0.5437,0.44914 0.0236,0.0473 0,0.11819 0,0.0709 0,0.1182 0,0.16547 0.0473,0.23638 0.28367,0.23639 0.49642,0.5437 0.23639,0.28366 0.54369,0.47278 0.0709,0.0473 0.30731,0.28366 0.26003,0.21275 0.59097,0.52006 0.33094,0.3073 0.68553,0.66189 0.37822,0.33094 0.68552,0.63825 0.30731,0.3073 0.49642,0.52005 0.21275,0.18911 0.21275,0.21275 -0.0473,0.11819 -0.16547,0.0709 l 0.0473,0.3073 q 0.0473,0.0473 0.0945,0.0473 0.0946,0 0.16547,-0.0473 0.0709,-0.0709 0.18911,-0.0709 0.0473,0 0.0946,0.0473 0.0473,0.0473 0.0709,0.0709 -0.0709,0.0473 -0.16548,0.14183 -0.0709,0.0709 -0.0709,0.16548 0,0.11819 0.16547,0.28366 0.18911,0.16547 0.26003,0.21275 l 0.3073,-0.35458 0.40186,0.851 -0.11819,0.0709 -0.33094,-0.49641 q -0.18912,0.0236 -0.21275,0.14183 -0.0236,0.0946 -0.0236,0.26003 0,0.0946 -0.0236,0.16547 l -0.23639,-0.37822 v 0.16547 q 0,0.33095 0.0709,0.40186 0.0709,0.0473 0.33094,0.0473 0.16547,0 0.21275,0.11819 0.0709,0.0946 0.18911,0.1182 l 0.0946,0.18911 0.47277,-0.16547 q 0,0.11819 0,0.21275 0,0.0946 -0.0473,0.21275 -0.23639,0.11819 -0.16548,0.35458 h -0.23638 q -0.0946,0 -0.16548,0.0236 -0.0709,0 -0.0709,0.11819 0,0.23639 0.0709,0.49642 0.0709,0.26003 0.21275,0.44914 z m -0.89827,-0.0236 q 0.0473,0 0.0473,0.0236 0.0236,0 0.0709,0 0.16547,0 0.23639,-0.14183 0.0946,-0.14184 0.16547,-0.26003 -0.11819,-0.0473 -0.21275,-0.18911 -0.0946,-0.16547 -0.21275,-0.16547 -0.0945,0 -0.16547,0.0709 z m -5.106,-7.28077 q -0.0709,0 -0.14183,-0.0236 -0.0473,-0.0236 -0.1182,-0.0709 l 0.59097,-0.0709 q -0.0709,0.0473 -0.14183,0.11819 -0.0709,0.0473 -0.18911,0.0473 z m 5.34239,9.14824 -0.0236,0.0946 0.23639,0.0709 0.0473,-0.14183 z m -1.11103,-4.91688 -0.28367,-0.23639 -0.0709,0.14183 z"
       style="stroke-width:1.10807216"
       id="path125" />
  </g>
</svg>
